# xmcd
# 
# Track frame offsets:
#     150
#     51872
#     99347
#     135082
#     198115
#     229545
# 
# Disc length: 3457
# 
# Revision: 2
# Processed by: cddbd v1.5.2PL0 Copyright (c) Steve Scherf et al.
# Submitted via: BonkEnc v1.0.6
# 
DISCID=3c0d7f06
DTITLE=マレイ・ペライア指揮、イギリス室内管弦楽団 - モーツァルト ピアノ協奏曲 第17番&第21番
DYEAR=0
DGENRE=Classical
TTITLE0=協奏曲 第17番 ト長調 第1楽章
TTITLE1=協奏曲 第17番 ト長調 第2楽章
TTITLE2=協奏曲 第17番 ト長調 第3楽章
TTITLE3=協奏曲 第21番 ハ長調 第1楽章
TTITLE4=協奏曲 第21番 ハ長調 第2楽章
TTITLE5=協奏曲 第21番 ハ長調 第3楽章
EXTD=
EXTT0=
EXTT1=
EXTT2=
EXTT3=
EXTT4=
EXTT5=
PLAYORDER=
